<svg width="80" height="80" viewBox="0 0 80 80" fill="none" xmlns="http://www.w3.org/2000/svg">
<path d="M37.4998 15.0001C37.4998 13.453 36.8851 11.9693 35.7912 10.8753C34.6972 9.78138 33.2135 9.16675 31.6664 9.16675C30.1193 9.16676 28.6356 9.78137 27.5417 10.8753C26.4477 11.9693 25.8331 13.453 25.8331 15.0001C25.8331 15.6632 25.5696 16.2992 25.1007 16.7681C24.6318 17.2368 23.996 17.5001 23.3331 17.5001C22.0035 17.5 20.6974 17.8532 19.5493 18.5238C18.4012 19.1945 17.4521 20.1586 16.7991 21.3168C16.1461 22.475 15.8127 23.7859 15.8331 25.1152C15.8535 26.4447 16.2271 27.7451 16.9154 28.8827C17.3386 29.5822 17.3929 30.4444 17.0611 31.1915C16.7293 31.9385 16.0534 32.4764 15.2508 32.6315C13.5395 32.9622 11.9966 33.8783 10.8872 35.2227C9.77781 36.567 9.1709 38.2555 9.1709 39.9985C9.17091 41.7414 9.7778 43.4299 10.8872 44.7743C11.9966 46.1186 13.5395 47.0347 15.2508 47.3654C16.0534 47.5205 16.7293 48.0584 17.0611 48.8054C17.3929 49.5525 17.3385 50.4143 16.9154 51.1138C16.2067 52.2856 15.8324 53.6293 15.8331 54.9989V55.0001L15.8355 55.1864C15.8832 57.108 16.6674 58.9407 18.0299 60.3032C19.4365 61.7097 21.344 62.5001 23.3331 62.5001C24.7138 62.5001 25.8331 63.6194 25.8331 65.0001C25.8331 66.5472 26.4477 68.0309 27.5417 69.1248C28.6356 70.2188 30.1193 70.8334 31.6664 70.8334C33.2135 70.8334 34.6972 70.2188 35.7912 69.1248C36.8851 68.0309 37.4998 66.5472 37.4998 65.0001C37.4998 63.6194 38.6191 62.5001 39.9998 62.5001C41.3805 62.5001 42.4998 63.6194 42.4998 65.0001C42.4998 66.5472 43.1144 68.0309 44.2083 69.1248C45.3023 70.2188 46.786 70.8334 48.3331 70.8334C49.8802 70.8334 51.3639 70.2188 52.4578 69.1248C53.5518 68.0309 54.1664 66.5472 54.1664 65.0001C54.1664 64.3369 54.4299 63.701 54.8988 63.2321C55.3678 62.7632 56.0041 62.4999 56.6672 62.5001C57.9972 62.5005 59.3034 62.1471 60.4518 61.4763C61.6003 60.8055 62.5498 59.8415 63.2029 58.6829C63.856 57.5243 64.1892 56.2127 64.1685 54.8829C64.1477 53.5531 63.7734 52.2526 63.0845 51.115C62.661 50.4156 62.6063 49.5532 62.938 48.8058C63.2697 48.0585 63.9459 47.5205 64.7487 47.3654C66.46 47.0347 68.0029 46.1186 69.1123 44.7743C70.2217 43.4299 70.8286 41.7414 70.8286 39.9985C70.8286 38.2555 70.2217 36.567 69.1123 35.2227C68.0029 33.8783 66.46 32.9622 64.7487 32.6315C63.9461 32.4764 63.2702 31.9385 62.9384 31.1915C62.6066 30.4444 62.661 29.5821 63.0841 28.8827C63.7724 27.7451 64.146 26.4447 64.1664 25.1152C64.1868 23.7858 63.8534 22.475 63.2004 21.3168C62.5474 20.1586 61.5983 19.1945 60.4502 18.5238C59.3021 17.8532 57.9964 17.5 56.6668 17.5001C56.0038 17.5001 55.3677 17.2368 54.8988 16.7681C54.43 16.2992 54.1664 15.6632 54.1664 15.0001C54.1664 13.453 53.5518 11.9693 52.4578 10.8753C51.3639 9.78137 49.8802 9.16675 48.3331 9.16675C46.786 9.16676 45.3023 9.78137 44.2083 10.8753C43.1144 11.9693 42.4998 13.453 42.4998 15.0001C42.4998 16.3808 41.3805 17.5001 39.9998 17.5001C38.6191 17.5001 37.4998 16.3808 37.4998 15.0001ZM75.8286 39.9985C75.8286 42.9029 74.8176 45.7169 72.9689 47.957C71.7785 49.3994 70.2881 50.545 68.6167 51.3258C68.9621 52.4488 69.1491 53.6197 69.1676 54.8048C69.2022 57.0212 68.6468 59.2072 67.5583 61.1382C66.4699 63.0692 64.8875 64.676 62.9734 65.7939C61.7146 66.5291 60.3421 67.035 58.9194 67.2954C58.4822 69.3119 57.475 71.1788 55.9934 72.6604C53.9618 74.692 51.2063 75.8334 48.3331 75.8334C45.4599 75.8334 42.7044 74.692 40.6728 72.6604C40.436 72.4236 40.2119 72.1765 39.9998 71.9211C39.7876 72.1765 39.5635 72.4236 39.3267 72.6604C37.2951 74.692 34.5396 75.8334 31.6664 75.8334C28.7933 75.8334 26.0377 74.692 24.0061 72.6604C22.5241 71.1784 21.5164 69.3112 21.0793 67.2942C18.6019 66.84 16.3002 65.6446 14.4944 63.8388C12.1502 61.4946 10.8331 58.3153 10.8331 55.0001C10.8326 53.7492 11.0199 52.5114 11.3836 51.3266C9.71183 50.5458 8.22121 49.3997 7.0306 47.957C5.18189 45.7169 4.17091 42.9029 4.1709 39.9985C4.1709 37.094 5.18191 34.28 7.0306 32.0399C8.22113 30.5973 9.71157 29.4511 11.3832 28.6703C11.0384 27.5476 10.8521 26.3768 10.8339 25.1921C10.7999 22.9764 11.3553 20.7915 12.4436 18.8612C13.5319 16.9308 15.1139 15.3244 17.0273 14.2066C18.2856 13.4717 19.6576 12.9653 21.0797 12.7048C21.5169 10.6882 22.5244 8.82143 24.0061 7.33976C26.0377 5.30813 28.7933 4.16676 31.6664 4.16675C34.5396 4.16675 37.2951 5.30813 39.3267 7.33976C39.5634 7.57645 39.7876 7.82332 39.9998 8.07869C40.2119 7.82331 40.4361 7.57645 40.6728 7.33976C42.7044 5.30813 45.4599 4.16676 48.3331 4.16675C51.2063 4.16675 53.9618 5.30813 55.9934 7.33976C57.475 8.8214 58.4822 10.6883 58.9194 12.7048C60.3417 12.9653 61.7138 13.4716 62.9722 14.2066C64.8856 15.3244 66.4676 16.9308 67.5559 18.8612C68.6442 20.7915 69.2001 22.9764 69.166 25.1921C69.1478 26.3768 68.9608 27.5475 68.6159 28.6703C70.2877 29.4511 71.7783 30.5972 72.9689 32.0399C74.8176 34.28 75.8286 37.094 75.8286 39.9985Z" fill="white"/>
<path d="M33.5219 25.8389C34.4642 25.8759 35.3763 26.1892 36.144 26.7415C36.9117 27.2938 37.4985 28.0591 37.8331 28.9408L37.8969 29.1186L37.8982 29.1226L44.0383 47.5426C44.4749 48.8525 43.7669 50.2685 42.4571 50.7051C41.1472 51.1417 39.7313 50.4337 39.2947 49.1239L37.6422 44.1666H29.0241L27.3716 49.1239C26.935 50.4337 25.5191 51.1417 24.2092 50.7051C22.8993 50.2685 22.1914 48.8525 22.628 47.5426L28.7681 29.1226L28.7693 29.1186C29.09 28.1621 29.7034 27.3306 30.5223 26.7415L30.6777 26.634C31.4642 26.1138 32.3875 25.8353 33.3331 25.8353L33.5219 25.8389ZM49.1665 48.3333V28.3333C49.1665 26.9525 50.2858 25.8333 51.6665 25.8333C53.0472 25.8333 54.1665 26.9525 54.1665 28.3333V48.3333C54.1665 49.714 53.0472 50.8333 51.6665 50.8333C50.2858 50.8333 49.1665 49.714 49.1665 48.3333ZM30.6907 39.1666H35.9756L33.3331 31.2385L30.6907 39.1666Z" fill="white"/>
</svg>
