<svg width="80" height="80" viewBox="0 0 80 80" fill="none" xmlns="http://www.w3.org/2000/svg">
<g clip-path="url(#clip0_74_505)">
<path d="M25.1851 59.9992C30.3171 60.0218 35.3188 61.6229 39.5108 64.5866C43.7328 67.5715 46.926 71.7917 48.6502 76.6663C49.1106 77.968 48.4284 79.3964 47.1268 79.8568C45.8252 80.3172 44.3967 79.6354 43.9363 78.3338C42.5568 74.4338 40.0021 71.0572 36.6243 68.6691C33.2465 66.2811 29.2115 64.9988 25.0748 64.9988C20.9381 64.9988 16.9031 66.281 13.5253 68.6691C10.1475 71.0572 7.59281 74.4338 6.2133 78.3338C5.75281 79.6354 4.32442 80.3172 3.02279 79.8568C1.72115 79.3964 1.03933 77.968 1.49976 76.6663C3.22402 71.7917 6.41682 67.5715 10.6388 64.5866C14.8485 61.6103 19.8751 60.0085 25.03 59.9992C23.985 59.9965 22.9378 59.8934 21.903 59.6875C18.7508 59.0605 15.8553 57.5131 13.5827 55.2405C11.3101 52.9679 9.76226 50.0724 9.13525 46.9202C8.50825 43.768 8.83022 40.5007 10.0601 37.5314C11.2901 34.5621 13.3729 32.0241 16.0452 30.2385C18.7175 28.453 21.8593 27.5 25.0732 27.5C26.4539 27.5 27.5732 28.6193 27.5732 30C27.5731 31.3807 26.4538 32.5 25.0732 32.5C22.8482 32.5 20.6732 33.1597 18.8232 34.3958C16.9732 35.6319 15.5312 37.389 14.6797 39.4446C13.8282 41.5003 13.6051 43.7626 14.0392 45.9449C14.4733 48.1271 15.5449 50.1316 17.1182 51.705C18.6916 53.2783 20.6961 54.3499 22.8783 54.784C25.0606 55.2181 27.3229 54.995 29.3786 54.1435C31.4342 53.292 33.1913 51.85 34.4274 50C35.6635 48.15 36.3231 45.975 36.3232 43.75C36.3232 42.3693 37.4425 41.2501 38.8232 41.25C40.2039 41.25 41.3232 42.3693 41.3232 43.75C41.3231 46.9639 40.3702 50.1057 38.5847 52.778C36.7991 55.4503 34.2611 57.5331 31.2918 58.7631C29.3455 59.5693 27.2711 59.9849 25.1851 59.9992ZM65.9993 46.5768C67.3799 46.5765 68.4993 47.6953 68.4997 49.076C68.5003 51.8523 67.6805 54.567 66.1429 56.8787C64.6053 59.1904 62.4187 60.996 59.8579 62.0687C57.2972 63.1414 54.4765 63.4333 51.7504 62.9078C49.0243 62.3822 46.5144 61.0625 44.5361 59.1146C43.5522 58.146 43.5398 56.5634 44.5084 55.5795C45.4771 54.5956 47.0601 54.5831 48.0439 55.5518C49.3199 56.808 50.9386 57.6591 52.6969 57.9981C54.4551 58.3371 56.2744 58.1488 57.9259 57.4569C59.5775 56.7651 60.9878 55.6007 61.9795 54.1097C62.9712 52.6188 63.5001 50.8679 63.4997 49.0772C63.4994 47.6965 64.6186 46.5771 65.9993 46.5768ZM66.2564 20C66.2564 16.0227 64.6764 12.2082 61.8639 9.39579C59.0515 6.5834 55.237 5.0033 51.2597 5.0033C47.2824 5.00334 43.4678 6.58341 40.6554 9.39579C37.8431 12.2082 36.2633 16.0227 36.2633 20C36.2634 23.9774 37.8431 27.7919 40.6554 30.6043C43.4678 33.4167 47.2824 34.9967 51.2597 34.9968C55.237 34.9968 59.0515 33.4166 61.8639 30.6043C64.6763 27.7919 66.2564 23.9774 66.2564 20ZM71.2564 20C71.2564 24.4623 69.7645 28.7705 67.0576 32.2588L78.0309 43.2321C79.0072 44.2084 79.0072 45.7913 78.0309 46.7676C77.0546 47.7439 75.4717 47.7439 74.4954 46.7676L63.5225 35.7947C60.0335 38.5036 55.7236 39.9968 51.2597 39.9968C45.9564 39.9967 40.8703 37.8898 37.1203 34.1399C33.3702 30.3898 31.2634 25.3035 31.2633 20C31.2633 14.6966 33.3702 9.61033 37.1203 5.86023C40.8703 2.11022 45.9563 0.00334304 51.2597 0.0032959C56.5631 0.0032959 61.6494 2.11016 65.3995 5.86023C69.1496 9.61033 71.2564 14.6966 71.2564 20ZM25.1851 59.9992C25.1756 59.9993 25.1661 59.9992 25.1566 59.9992C25.1661 59.9993 25.1756 59.9992 25.1851 59.9992Z" fill="#F0F8FF"/>
<path d="M49.1937 63.0151C52.626 62.1516 56.2187 62.151 59.6514 63.0127C63.0843 63.8745 66.2506 65.5722 68.8682 67.9545C71.4856 70.3368 73.4732 73.3296 74.6535 76.6663C75.1139 77.9679 74.4317 79.3964 73.13 79.8568C71.8284 80.3171 70.4 79.6354 69.9395 78.3337C69.0344 75.7747 67.5102 73.4791 65.5027 71.652C63.4952 69.825 61.0667 68.5231 58.434 67.8621C55.8013 67.2013 53.0459 67.2019 50.4136 67.8642C47.7812 68.5265 45.3534 69.83 43.3469 71.6581C42.3263 72.588 40.7449 72.5143 39.815 71.4937C38.8852 70.4731 38.9588 68.8917 39.9794 67.9618C42.5957 65.5782 45.7613 63.8787 49.1937 63.0151Z" fill="#F0F8FF"/>
</g>
<defs>
<clipPath id="clip0_74_505">
<rect width="80" height="80" fill="white"/>
</clipPath>
</defs>
</svg>
