<svg width="80" height="80" viewBox="0 0 80 80" fill="none" xmlns="http://www.w3.org/2000/svg">
<path d="M66.3888 49.2285C66.3888 46.7444 65.6975 45.2037 64.7754 44.2816C63.8533 43.3595 62.3128 42.6685 59.8288 42.6685C57.3398 42.6685 55.8 43.3591 54.8797 44.2795C53.9593 45.1998 53.2687 46.7396 53.2687 49.2285C53.2687 51.7173 53.9595 53.2551 54.879 54.1738C55.7701 55.0641 57.2429 55.7392 59.5979 55.7806L59.8288 55.7827L60.0589 55.7806C62.4097 55.7392 63.8836 55.0637 64.7764 54.1717C65.6977 53.2513 66.3888 51.7126 66.3888 49.2285ZM59.8288 61.497C56.4328 61.497 53.7675 62.8072 51.9182 64.9107C50.5388 66.4799 49.5417 68.5788 49.1089 71.0742H70.549C70.1165 68.5784 69.1199 66.4793 67.741 64.9104C65.8929 62.8075 63.228 61.497 59.8288 61.497ZM49.2299 7.73824C52.0492 7.81839 54.8672 7.94141 57.6828 8.10759C64.6389 8.51891 70.1653 14.0564 70.5835 21.0052L70.6634 22.3933C70.7392 23.78 70.8031 25.1615 70.8552 26.5378C70.9148 28.1145 69.685 29.4409 68.1083 29.5006C66.5315 29.5602 65.2048 28.3304 65.1451 26.7537C65.0773 24.9619 64.9889 23.1604 64.8797 21.3491C64.6349 17.2809 61.4067 14.0523 57.3458 13.8121C54.5884 13.6494 51.8285 13.5286 49.0674 13.4501C47.4902 13.4052 46.2478 12.0903 46.2926 10.5131C46.3374 8.93575 47.6526 7.69339 49.2299 7.73824ZM72.1031 49.2285C72.1031 52.7673 71.0968 55.9344 68.8152 58.214C68.7877 58.2414 68.7593 58.2678 68.7315 58.2949C69.9574 59.0803 71.0641 60.0352 72.0333 61.1381C74.9644 64.4732 76.5029 68.9999 76.5029 73.9314C76.5028 75.5093 75.2237 76.7885 73.6457 76.7885H46.0114C44.4336 76.7885 43.1543 75.5093 43.1543 73.9314C43.1543 68.9991 44.695 64.4724 47.6266 61.1377C48.5949 60.0363 49.7001 59.0825 50.9242 58.2977C50.8963 58.2704 50.8678 58.2437 50.8402 58.2161C48.5583 55.9362 47.5544 52.7682 47.5544 49.2285C47.5544 45.6889 48.5581 42.52 50.8391 40.2389C53.1202 37.9578 56.2891 36.9542 59.8288 36.9542C63.3675 36.9542 66.5355 37.9603 68.8163 40.241C71.097 42.5218 72.1031 45.6898 72.1031 49.2285Z" fill="#F0F8FF"/>
<path d="M17.7919 13.7961C18.8219 10.7818 22.9864 10.6905 24.2076 13.5222L24.3109 13.7978L25.7008 17.8627C26.0193 18.7949 26.5341 19.648 27.2103 20.3643C27.8865 21.0807 28.7085 21.6437 29.6208 22.0154L29.9946 22.1549L34.0592 23.5432C37.0733 24.5732 37.1646 28.738 34.3348 29.9592L34.0592 30.0625L29.9946 31.4525C29.0621 31.7709 28.2087 32.2855 27.4921 32.9618C26.7754 33.6381 26.2122 34.4602 25.8403 35.3727L25.7008 35.7448L24.3126 39.8114C23.2827 42.8256 19.1181 42.9169 17.8987 40.087L17.7919 39.8114L16.4037 35.7465C16.0854 34.8139 15.5708 33.9605 14.8945 33.2439C14.2183 32.5272 13.3962 31.9639 12.4837 31.592L12.1117 31.4525L8.04703 30.0642C5.03124 29.0342 4.93996 24.8695 7.77146 23.65L8.04703 23.5432L12.1117 22.1549C13.0439 21.8364 13.8969 21.3216 14.6132 20.6454C15.3296 19.9691 15.8926 19.1471 16.2642 18.2347L16.4037 17.8627L17.7919 13.7961ZM34.8308 7.85718C35.1531 7.85718 35.4688 7.94757 35.7422 8.11807C36.0156 8.28858 36.2357 8.53237 36.3775 8.82173L36.4602 9.02325L37.063 10.7904L38.8318 11.3933C39.1547 11.503 39.4378 11.7061 39.6451 11.9769C39.8525 12.2476 39.9748 12.5739 39.9966 12.9142C40.0183 13.2546 39.9386 13.5937 39.7674 13.8887C39.5962 14.1837 39.3413 14.4212 39.035 14.5711L38.8318 14.6538L37.0647 15.2567L36.4619 17.0256C36.352 17.3484 36.1487 17.6314 35.8779 17.8385C35.607 18.0457 35.2808 18.1679 34.9404 18.1895C34.6001 18.211 34.2611 18.1311 33.9662 17.9598C33.6714 17.7885 33.434 17.5335 33.2842 17.2271L33.2015 17.0256L32.5987 15.2584L30.8299 14.6555C30.507 14.5458 30.2239 14.3427 30.0166 14.072C29.8092 13.8012 29.6869 13.475 29.6651 13.1346C29.6434 12.7943 29.7231 12.4551 29.8943 12.1601C30.0655 11.8652 30.3204 11.6276 30.6267 11.4777L30.8299 11.395L32.597 10.7922L33.1998 9.02325C33.3159 8.68295 33.5357 8.38752 33.8282 8.17841C34.1207 7.96929 34.4713 7.85696 34.8308 7.85718Z" fill="#F0F8FF"/>
<path d="M11.4241 56.4521C11.3361 54.8767 9.98782 53.6711 8.41243 53.7589C6.83698 53.8468 5.63101 55.1951 5.71887 56.7706L5.85593 59.228V59.2308C6.04708 62.592 7.4681 65.7655 9.84798 68.1468C12.2279 70.5281 15.4007 71.951 18.7619 72.1441C21.4407 72.2978 24.0992 72.417 26.7369 72.5016C28.3141 72.5522 29.6338 71.3144 29.6844 69.7372C29.7349 68.1601 28.4971 66.8407 26.92 66.7901C24.3312 66.7071 21.7206 66.5899 19.0891 66.4389C17.1286 66.3262 15.2781 65.4963 13.8899 64.1073C12.545 62.7617 11.725 60.9824 11.5737 59.0899L11.5612 58.9064L11.4241 56.4521Z" fill="#F0F8FF"/>
</svg>
