<svg width="80" height="80" viewBox="0 0 80 80" fill="none" xmlns="http://www.w3.org/2000/svg">
<g clip-path="url(#clip0_74_594)">
<path d="M21.0318 58.9099C22.1492 58.0991 23.7125 58.3475 24.5234 59.4649C25.3343 60.5824 25.0855 62.1461 23.968 62.957L19.2548 66.3761C19.7143 67.5007 19.9701 68.7097 19.9962 69.9471C20.0243 71.2778 19.7861 72.6008 19.2963 73.8383C18.8065 75.0758 18.0746 76.2031 17.1434 77.1541C16.2123 78.1051 15.1005 78.8608 13.8736 79.3766C12.6467 79.8924 11.3291 80.1583 9.99823 80.1583C8.66732 80.1583 7.34981 79.8924 6.12291 79.3766C4.89596 78.8608 3.78421 78.1051 2.85305 77.1541C1.92191 76.2031 1.18996 75.0758 0.700137 73.8383C0.210322 72.6008 -0.02779 71.2777 0.000267145 69.9471C0.0554555 67.3321 1.13308 64.8426 3.00198 63.0127C4.87092 61.1828 7.3826 60.1583 9.99823 60.1583L10.2432 60.1611C12.4453 60.215 14.5612 60.9944 16.267 62.3669L21.0318 58.9099ZM74.9999 70C74.9999 68.6739 74.4731 67.4021 73.5354 66.4644C72.5977 65.5268 71.3259 65 69.9999 65C68.6738 65 67.402 65.5268 66.4643 66.4644C65.5266 67.4021 64.9999 68.6739 64.9999 70C64.9999 71.3261 65.5266 72.5979 66.4643 73.5356C67.402 74.4732 68.6738 75 69.9999 75C71.3259 75 72.5977 74.4732 73.5354 73.5356C74.4731 72.5979 74.9999 71.3261 74.9999 70ZM9.75369 65.164C8.53468 65.2236 7.37617 65.7279 6.5001 66.5857C5.56571 67.5007 5.02702 68.7454 4.99945 70.0529C4.98545 70.7182 5.10409 71.3796 5.34898 71.9983C5.59388 72.617 5.9601 73.1805 6.42564 73.656C6.89122 74.1315 7.4471 74.5094 8.06057 74.7673C8.67404 75.0252 9.33277 75.1583 9.99823 75.1583C10.6637 75.1583 11.3224 75.0252 11.9359 74.7673C12.5494 74.5094 13.1052 74.1315 13.5708 73.656C14.0364 73.1805 14.4026 72.617 14.6475 71.9983C14.8924 71.3796 15.011 70.7182 14.997 70.0529C14.9694 68.7454 14.4308 67.5007 13.4964 66.5857C12.5619 65.6707 11.3061 65.1583 9.99823 65.1583L9.75369 65.164ZM14.9999 10C14.9999 8.67392 14.4731 7.40212 13.5354 6.46444C12.5977 5.52677 11.3259 5 9.99986 5C8.67379 5.00001 7.40197 5.52676 6.4643 6.46444C5.52663 7.40212 4.99986 8.67393 4.99986 10C4.99986 10.6565 5.1291 11.3067 5.38031 11.9132C5.63158 12.5199 6.00001 13.0713 6.4643 13.5356C6.92859 13.9999 7.47999 14.3683 8.08661 14.6195C8.69318 14.8708 9.34332 15 9.99986 15C10.6565 15 11.3069 14.8708 11.9135 14.6195C12.5201 14.3683 13.0712 13.9998 13.5354 13.5356C13.9997 13.0713 14.3681 12.5199 14.6194 11.9132C14.8706 11.3067 14.9999 10.6565 14.9999 10ZM74.9999 10C74.9999 8.67392 74.4731 7.40212 73.5354 6.46444C72.5977 5.52677 71.3259 5 69.9999 5C68.6738 5.00001 67.402 5.52676 66.4643 6.46444C65.5266 7.40212 64.9999 8.67393 64.9999 10C64.9999 11.3261 65.5266 12.5979 66.4643 13.5356C67.402 14.4732 68.6738 15 69.9999 15C71.3259 15 72.5977 14.4732 73.5354 13.5356C74.4731 12.5979 74.9999 11.3261 74.9999 10ZM79.9999 70C79.9999 72.6522 78.9464 75.1958 77.071 77.0711C75.1956 78.9465 72.652 80 69.9999 80C67.3477 80 64.8041 78.9465 62.9287 77.0711C61.112 75.2543 60.0667 72.8104 60.0031 70.2482L59.9999 70C59.9999 68.735 60.2398 67.4948 60.694 66.3399L56.0318 62.957C54.9143 62.1461 54.6655 60.5824 55.4763 59.4649C56.2872 58.3475 57.8505 58.0991 58.968 58.9099L63.6294 62.2921C65.4142 60.8169 67.6648 60 69.9999 60C72.652 60 75.1956 61.0535 77.071 62.9289C78.9464 64.8042 79.9999 67.3478 79.9999 70ZM19.9999 10C19.9999 11.2529 19.7638 12.4938 19.3057 13.6589L23.9676 17.0394C25.0853 17.8499 25.3343 19.4132 24.5238 20.531C23.7133 21.6487 22.1499 21.8977 21.0322 21.0872L16.3707 17.7071C15.6049 18.3402 14.748 18.8571 13.8268 19.2387C12.6135 19.7412 11.3131 20 9.99986 20C8.68666 20 7.3862 19.7412 6.17296 19.2387C4.95975 18.7361 3.85729 17.9997 2.92873 17.0711C2.00018 16.1426 1.26372 15.0401 0.761172 13.8269C0.258625 12.6136 -0.000139771 11.3132 -0.000139756 10C-0.000139717 7.34784 1.05338 4.80424 2.92873 2.92887C4.80409 1.05352 7.34771 1.0313e-05 9.99986 0C12.652 0 15.1956 1.05352 17.071 2.92887C18.9464 4.80424 19.9999 7.34783 19.9999 10ZM79.9999 10C79.9999 12.6522 78.9464 15.1958 77.071 17.0711C75.1956 18.9465 72.652 20 69.9999 20C67.6646 20 65.4139 19.1826 63.629 17.7071L58.9676 21.0872C57.8498 21.8977 56.2865 21.6487 55.4759 20.531C54.6655 19.4133 54.9145 17.8499 56.0322 17.0394L60.694 13.6593C60.2697 12.5802 60.0323 11.4268 60.0031 10.2482L59.9999 10C59.9999 7.34784 61.0534 4.80424 62.9287 2.92887C64.8041 1.05352 67.3477 1.01025e-05 69.9999 0C72.652 0 75.1956 1.05352 77.071 2.92887C78.9464 4.80424 79.9999 7.34784 79.9999 10Z" fill="white"/>
<path d="M24.5509 36.1667C24.2114 37.487 24.0403 38.845 24.0417 40.2083C24.0417 41.6027 24.2195 42.9567 24.5509 44.25H30.3063C30.0361 41.5623 30.0361 38.8543 30.3063 36.1667H24.5509ZM26.204 32.125H30.9448C31.4824 29.6656 32.2584 27.4629 33.2102 25.63C30.2767 27.044 27.8357 29.3068 26.204 32.125ZM55.8657 36.1667H50.1104C50.3805 38.8543 50.3805 41.5623 50.1104 44.25H55.8657C56.5458 41.5985 56.5458 38.8182 55.8657 36.1667ZM54.2127 32.125C52.581 29.3068 50.14 27.044 47.2065 25.63C48.1603 27.4629 48.9343 29.6656 49.4718 32.125H54.2127ZM34.3722 36.1667C34.2218 37.5086 34.1462 38.858 34.1458 40.2083C34.1458 41.5926 34.2226 42.9466 34.3722 44.25H46.0445C46.3482 41.5641 46.3482 38.8526 46.0445 36.1667H34.3722ZM35.0956 32.125H45.321C44.9526 30.6061 44.4222 29.1312 43.7387 27.7256C42.4696 25.1895 41.1116 24.0417 40.2083 24.0417C39.305 24.0417 37.947 25.1895 36.6779 27.7256C36.0414 29.0028 35.5059 30.4881 35.0956 32.125ZM26.204 48.2917C27.8357 51.1099 30.2767 53.3727 33.2102 54.7866C32.2564 52.9537 31.4824 50.751 30.9448 48.2917H26.204ZM54.2127 48.2917H49.4718C48.9343 50.751 48.1583 52.9537 47.2065 54.7866C50.14 53.3727 52.581 51.1099 54.2127 48.2917ZM35.0956 48.2917C35.5059 49.9285 36.0414 51.4139 36.6779 52.691C37.947 55.2272 39.305 56.375 40.2083 56.375C41.1116 56.375 42.4696 55.2272 43.7387 52.691C44.3753 51.4139 44.9108 49.9285 45.321 48.2917H35.0956ZM40.2083 60.4167C29.0473 60.4167 20 51.3694 20 40.2083C20 29.0473 29.0473 20 40.2083 20C51.3694 20 60.4167 29.0473 60.4167 40.2083C60.4167 51.3694 51.3694 60.4167 40.2083 60.4167Z" fill="white"/>
</g>
<defs>
<clipPath id="clip0_74_594">
<rect width="80" height="80" fill="white"/>
</clipPath>
</defs>
</svg>
