<svg width="61" height="61" viewBox="0 0 61 61" fill="none" xmlns="http://www.w3.org/2000/svg">
<path fill-rule="evenodd" clip-rule="evenodd" d="M48.687 43.8999C49.5526 41.3463 53.1941 41.3872 54.0601 43.8941L54.1392 44.1519V44.1577L55.0298 47.7202L58.5835 48.6079C61.4911 49.3276 61.4471 53.4197 58.5982 54.1392H58.5923L55.0239 55.0298L54.1392 58.5835L54.1421 58.5864C53.4224 61.4941 49.3303 61.4471 48.6109 58.5982V58.5923L47.7202 55.0298L44.1636 54.1392C41.2564 53.4192 41.3033 49.3305 44.1519 48.6109H44.1577L47.7202 47.7202L48.6079 44.1636L48.687 43.8999ZM51.0952 51.0952C50.9921 51.1983 50.878 51.288 50.7612 51.3736C50.7753 51.3839 50.7913 51.3923 50.8052 51.4028L51.0952 51.6548L51.3472 51.9448C51.3569 51.9576 51.3641 51.9729 51.3736 51.9859C51.4614 51.8666 51.5545 51.7551 51.6548 51.6548L51.9448 51.4028C51.9582 51.3927 51.9723 51.3835 51.9859 51.3736C51.8699 51.2884 51.7572 51.1977 51.6548 51.0952C51.5514 50.9918 51.4593 50.8784 51.3736 50.7612C51.288 50.878 51.1983 50.9921 51.0952 51.0952Z" fill="#F0F8FF"/>
<path fill-rule="evenodd" clip-rule="evenodd" d="M24.7486 11.8696C26.3165 6.39182 33.889 6.22097 35.8316 11.357L36.0015 11.8696L38.6558 21.1685C38.7188 21.3885 38.8367 21.5896 38.9986 21.7515C39.1604 21.9134 39.3615 22.0311 39.5816 22.0943L48.8775 24.7486C54.532 26.3669 54.5349 34.3831 48.8804 36.0015L39.5816 38.6558C39.3614 38.7189 39.1605 38.8366 38.9986 38.9986C38.841 39.1561 38.7259 39.3508 38.6616 39.564C38.6601 39.5696 38.6603 39.5759 38.6587 39.5816L36.0015 48.8804C34.3831 54.5349 26.3669 54.5349 24.7486 48.8804L22.0943 39.5816C22.0311 39.3615 21.9134 39.1604 21.7515 38.9986C21.5896 38.8367 21.3885 38.7188 21.1685 38.6558L11.8726 36.0015C6.21849 34.3829 6.21545 26.367 11.8696 24.7486L21.1685 22.0943C21.3887 22.0312 21.5895 21.9135 21.7515 21.7515C21.9135 21.5895 22.0312 21.3887 22.0943 21.1685L24.7486 11.8696ZM31.5864 12.8775C31.073 11.8084 29.4259 11.8859 29.0757 13.1089L26.4214 22.4048C26.1482 23.3603 25.6359 24.2304 24.9331 24.9331C24.2304 25.6359 23.3603 26.1482 22.4048 26.4214L13.1089 29.0757C11.8038 29.4494 11.8039 31.3005 13.1089 31.6743L22.4048 34.3286L22.7593 34.4429C23.5753 34.7335 24.3184 35.2023 24.9331 35.8169C25.6358 36.5196 26.1482 37.3899 26.4214 38.3452L29.0757 47.6411C29.4493 48.9466 31.3007 48.9466 31.6743 47.6411L34.3286 38.3452C34.6018 37.3898 35.1142 36.5196 35.8169 35.8169C36.5196 35.1142 37.3898 34.6018 38.3452 34.3286L47.6411 31.6743L47.8726 31.5864C48.9422 31.0732 48.8645 29.4258 47.6411 29.0757L38.3452 26.4214C37.3899 26.1482 36.5196 25.6358 35.8169 24.9331C35.2023 24.3184 34.7335 23.5753 34.4429 22.7593L34.3286 22.4048L31.6743 13.1089L31.5864 12.8775Z" fill="#F0F8FF"/>
<path fill-rule="evenodd" clip-rule="evenodd" d="M6.60793 2.16359C7.32221 -0.721246 11.4277 -0.721149 12.1421 2.16359L12.1392 2.16652L13.0298 5.72023L16.5835 6.60793C19.4687 7.32208 19.4716 11.428 16.5864 12.1421L16.5835 12.1392L13.0239 13.0298L12.1392 16.5835L12.1421 16.5864C11.428 19.4716 7.32208 19.4716 6.60793 16.5864L5.72023 13.0298L2.16652 12.1392L2.16359 12.1421C-0.721149 11.4277 -0.721246 7.32221 2.16359 6.60793L5.72023 5.72023L6.60793 2.16359ZM9.09523 9.09523C8.99211 9.19836 8.878 9.28797 8.76125 9.37355C8.77533 9.38386 8.79127 9.39232 8.80519 9.40285L9.09523 9.6548L9.34719 9.94484C9.35693 9.95765 9.36408 9.97286 9.37355 9.98586C9.46138 9.86663 9.55454 9.75506 9.6548 9.6548L9.94484 9.40285C9.95821 9.39268 9.97232 9.38348 9.98586 9.37355C9.86995 9.28842 9.75725 9.19768 9.6548 9.09523C9.5514 8.99178 9.45931 8.8784 9.37355 8.76125C9.28797 8.878 9.19836 8.99211 9.09523 9.09523Z" fill="#F0F8FF"/>
</svg>
